<?xml version="1.0" standalone="no"?>
<!DOCTYPE svg PUBLIC "-//W3C//DTD SVG 20010904//EN"
 "http://www.w3.org/TR/2001/REC-SVG-20010904/DTD/svg10.dtd">
<svg version="1.0" xmlns="http://www.w3.org/2000/svg"
 width="1024.000000pt" height="1024.000000pt" viewBox="0 0 1024.000000 1024.000000"
 preserveAspectRatio="xMidYMid meet">

<g transform="translate(0.000000,1024.000000) scale(0.100000,-0.100000)"
fill="#000000" stroke="none">
<path d="M4875 9634 c-624 -37 -1155 -172 -1708 -433 -385 -182 -797 -467
-1111 -771 -631 -609 -1052 -1326 -1241 -2115 -291 -1207 -96 -2440 542 -3434
180 -280 360 -501 617 -756 363 -363 768 -651 1226 -872 928 -448 1996 -553
3015 -296 443 112 811 265 1200 498 476 286 926 687 1252 1118 427 563 688
1150 818 1842 58 309 69 437 70 810 0 323 -4 386 -41 650 -75 535 -287 1139
-559 1590 -214 356 -399 591 -704 895 -484 482 -1071 842 -1731 1059 -299 99
-683 175 -1010 200 -140 11 -543 21 -635 15z m635 -259 c421 -38 890 -155
1265 -317 777 -335 1394 -846 1852 -1533 352 -529 572 -1134 660 -1810 25
-201 26 -779 0 -980 -66 -514 -185 -913 -401 -1345 -163 -326 -357 -612 -602
-890 -307 -347 -613 -599 -1024 -845 -934 -559 -2079 -723 -3172 -454 -1421
348 -2583 1455 -2998 2856 -109 369 -160 741 -160 1168 0 250 10 394 41 610
163 1137 798 2161 1747 2819 307 212 665 392 1029 517 578 197 1126 261 1763
204z"/>
<path d="M5062 7108 c-161 -25 -295 -167 -309 -327 l-6 -58 -56 -34 c-31 -18
-157 -95 -281 -171 l-225 -137 -74 37 c-71 35 -80 37 -170 37 -82 0 -104 -4
-151 -26 -81 -38 -154 -109 -192 -186 -40 -81 -50 -197 -24 -285 23 -80 92
-169 163 -210 l58 -34 0 -318 0 -317 -40 -18 c-57 -25 -129 -102 -164 -174
-110 -229 24 -501 269 -547 94 -18 243 16 302 67 16 14 24 12 85 -25 38 -22
111 -64 163 -94 52 -30 149 -87 215 -125 l120 -71 8 -64 c35 -293 379 -429
611 -241 68 55 109 126 129 223 l12 63 270 169 c149 93 276 172 282 175 7 3
26 -6 43 -20 66 -56 212 -75 323 -43 170 49 289 244 259 422 -21 126 -89 227
-191 285 -24 13 -43 27 -43 32 1 4 2 145 2 315 l0 307 44 28 c101 63 171 168
186 277 24 169 -60 334 -206 406 -54 27 -68 29 -169 29 -108 0 -111 -1 -180
-37 -38 -21 -73 -38 -77 -38 -5 0 -79 42 -166 93 -211 126 -310 182 -352 202
-35 16 -35 17 -36 85 -2 86 -34 159 -99 229 -93 100 -203 139 -333 119z m138
-233 c16 -8 42 -32 57 -52 40 -52 40 -132 1 -191 -23 -34 -37 -44 -80 -56
-124 -36 -224 40 -215 162 4 59 25 94 77 130 39 26 116 30 160 7z m-376 -386
c30 -43 124 -110 179 -128 l32 -11 0 -128 c0 -111 3 -131 20 -159 19 -30 210
-210 378 -357 108 -94 107 -92 114 -328 4 -142 10 -211 19 -230 13 -24 129
-122 309 -259 l59 -46 1 -104 c1 -57 5 -120 9 -139 l7 -35 -88 -53 c-48 -28
-155 -95 -238 -147 -82 -52 -152 -95 -156 -95 -4 0 -17 16 -29 36 -29 46 -107
107 -164 129 -28 11 -46 25 -50 39 -3 11 -6 156 -6 322 l0 301 -29 44 c-17 24
-80 90 -140 147 -61 57 -111 110 -111 119 0 8 17 32 38 53 30 30 49 40 87 45
74 11 102 29 116 74 14 49 -1 85 -51 119 -30 21 -44 23 -100 19 -81 -5 -120
-24 -192 -94 -39 -38 -60 -53 -70 -47 -7 4 -92 71 -188 149 -97 77 -199 158
-228 180 -42 31 -52 44 -47 60 17 54 17 153 1 209 -10 32 -16 59 -14 61 2 1
104 61 226 134 123 72 233 138 245 146 12 8 24 15 27 15 3 0 18 -19 34 -41z
m908 -145 c98 -57 187 -106 199 -109 17 -6 19 -11 12 -33 -4 -15 -8 -72 -8
-126 l0 -99 -56 -46 c-31 -25 -90 -74 -133 -109 l-76 -64 -153 135 c-83 74
-183 164 -221 199 l-69 63 -5 100 -4 100 52 19 c35 12 74 39 114 77 l61 57 55
-31 c30 -17 135 -77 232 -133z m-1729 -108 c126 -54 136 -230 17 -300 -66 -39
-167 -16 -213 48 -17 24 -22 45 -22 96 0 79 26 122 89 151 49 22 86 24 129 5z
m2395 -13 c47 -35 65 -70 70 -130 3 -49 0 -64 -20 -93 -39 -57 -82 -80 -151
-80 -57 0 -62 2 -102 43 -34 33 -45 52 -50 89 -12 80 26 151 100 185 40 18
120 11 153 -14z m-305 -453 c31 -23 76 -45 108 -53 l54 -14 3 -307 2 -306 -25
0 c-36 0 -117 -33 -158 -64 l-36 -28 -142 108 c-77 59 -145 119 -150 132 -5
13 -9 94 -9 180 l0 157 130 104 c71 57 135 110 141 117 17 20 25 18 82 -26z
m-1851 -18 c18 -16 113 -93 210 -170 97 -78 179 -146 182 -150 2 -4 -37 -44
-87 -87 -51 -44 -144 -127 -207 -184 -63 -58 -125 -113 -137 -124 -22 -19 -22
-19 -58 3 -20 13 -62 31 -93 40 l-57 18 -3 294 -2 294 53 17 c30 10 74 31 98
47 24 16 49 30 56 30 7 0 27 -13 45 -28z m658 -589 l130 -127 0 -293 0 -292
-38 -10 c-68 -19 -152 -86 -198 -159 -1 -2 -476 272 -493 285 -2 1 2 34 9 73
12 65 7 151 -13 210 -4 10 44 59 146 148 84 73 190 168 237 212 47 43 86 79
88 80 1 0 61 -57 132 -127z m-878 -299 c106 -53 109 -221 5 -284 -97 -60 -217
-11 -247 100 -37 138 110 250 242 184z m2372 -3 c42 -26 76 -89 76 -138 0 -60
-38 -123 -90 -150 -54 -29 -104 -29 -154 0 -63 36 -81 68 -81 145 0 80 22 118
87 151 51 26 112 23 162 -8z m-1178 -643 c129 -87 70 -298 -84 -298 -63 0
-124 37 -151 93 -26 54 -26 89 -1 143 44 89 153 118 236 62z"/>
<path d="M8038 6013 c7 -3 16 -2 19 1 4 3 -2 6 -13 5 -11 0 -14 -3 -6 -6z"/>
<path d="M8249 5873 c-13 -17 -13 -17 6 -3 11 8 22 16 24 17 2 2 0 3 -6 3 -6
0 -17 -8 -24 -17z"/>
<path d="M8370 5676 c0 -2 8 -10 18 -17 15 -13 16 -12 3 4 -13 16 -21 21 -21
13z"/>
<path d="M7260 5491 c0 -6 4 -13 10 -16 6 -3 7 1 4 9 -7 18 -14 21 -14 7z"/>
<path d="M8589 5383 c-13 -16 -12 -17 4 -4 9 7 17 15 17 17 0 8 -8 3 -21 -13z"/>
<path d="M7360 5387 c0 -2 15 -16 33 -33 l32 -29 -29 33 c-28 30 -36 37 -36
29z"/>
<path d="M8231 5194 c0 -11 3 -14 6 -6 3 7 2 16 -1 19 -3 4 -6 -2 -5 -13z"/>
<path d="M8369 5173 l-24 -28 28 24 c15 14 27 26 27 28 0 8 -8 1 -31 -24z"/>
<path d="M7801 5083 c-1 -23 23 -53 42 -53 6 0 2 7 -10 15 -12 8 -24 25 -26
38 -4 22 -4 22 -6 0z"/>
<path d="M2058 4993 c122 -2 322 -2 445 0 122 1 22 2 -223 2 -245 0 -345 -1
-222 -2z"/>
<path d="M4310 2898 l0 -448 80 0 80 0 0 444 0 444 -80 4 -80 3 0 -447z"/>
<path d="M3646 3288 c-10 -29 -46 -127 -81 -218 -35 -91 -102 -267 -148 -392
l-84 -228 82 0 81 0 40 108 40 107 166 3 c125 2 168 -1 175 -10 5 -7 25 -57
43 -110 l33 -98 83 0 83 0 -25 68 c-15 37 -43 114 -64 172 -34 94 -150 406
-216 583 l-26 67 -82 0 -81 0 -19 -52z m138 -242 c8 -22 30 -85 50 -138 l35
-98 -124 0 -123 0 39 113 c22 61 49 138 61 170 l21 59 14 -32 c7 -18 19 -51
27 -74z"/>
<path d="M4990 2895 l0 -445 280 0 280 0 0 75 0 75 -196 2 -195 3 1 368 1 367
-86 0 -85 0 0 -445z"/>
<path d="M6330 2895 l0 -445 75 0 74 0 -5 43 -6 42 28 -26 c109 -101 277 -91
378 21 66 73 81 119 81 245 0 122 -15 170 -73 236 -51 59 -114 84 -207 84 -78
0 -120 -13 -157 -47 -44 -43 -43 -47 -40 128 l3 164 -76 0 -75 0 0 -445z m377
55 c111 -50 134 -226 43 -323 -34 -37 -42 -41 -96 -44 -45 -3 -68 0 -94 15
-94 52 -116 228 -38 311 57 61 114 74 185 41z"/>
<path d="M5833 3086 c-80 -26 -141 -89 -158 -164 -6 -29 -4 -32 18 -32 13 0
44 -3 69 -6 43 -6 45 -5 58 26 7 17 23 38 36 47 34 22 109 20 142 -4 27 -20
57 -86 48 -108 -3 -8 -48 -15 -122 -19 -157 -9 -218 -37 -250 -113 -17 -39
-18 -121 -3 -160 46 -123 261 -156 353 -54 27 29 33 26 28 -14 l-4 -35 71 0
71 0 0 228 c0 125 -5 243 -10 263 -28 101 -101 151 -225 156 -48 2 -96 -3
-122 -11z m212 -393 c-10 -62 -24 -87 -58 -110 -38 -26 -121 -31 -150 -9 -29
22 -41 70 -25 103 17 37 63 52 161 52 l78 1 -6 -37z"/>
</g>
</svg>
